HIERARCHY
ROOT Hips
{
	OFFSET 0.000000 0.000000 0.000000
	CHANNELS 6 Xposition Yposition Zposition Xrotation Yrotation Zrotation
	JOINT Chest
	{
		OFFSET 0.000000 0.009282 11.569106
		CHANNELS 3 Xrotation Yrotation Zrotation
		JOINT Chest2
		{
			OFFSET 0.000000 -0.016863 9.269641
			CHANNELS 3 Xrotation Yrotation Zrotation
			JOINT Chest3
			{
				OFFSET 0.000000 0.000000 8.374491
				CHANNELS 3 Xrotation Yrotation Zrotation
				JOINT Chest4
				{
					OFFSET 0.000000 0.000000 8.374493
					CHANNELS 3 Xrotation Yrotation Zrotation
					JOINT Neck
					{
						OFFSET 0.000000 -0.000001 12.152554
						CHANNELS 3 Xrotation Yrotation Zrotation
						JOINT Head
						{
							OFFSET 0.000000 -0.040100 7.802319
							CHANNELS 3 Xrotation Yrotation Zrotation
							End Site
							{
								OFFSET 0.000000 -0.020946 14.853096
							}
						}
					}
					JOINT RightCollar
					{
						OFFSET -2.894404 0.000000 6.791374
						CHANNELS 3 Xrotation Yrotation Zrotation
						JOINT RightShoulder
						{
							OFFSET -13.574684 0.000000 0.000000
							CHANNELS 3 Xrotation Yrotation Zrotation
							JOINT RightElbow
							{
								OFFSET -23.923903 0.000000 0.000000
								CHANNELS 3 Xrotation Yrotation Zrotation
								JOINT RightWrist
								{
									OFFSET -19.846718 -0.012765 0.000000
									CHANNELS 3 Xrotation Yrotation Zrotation
									End Site
									{
										OFFSET -14.973145 0.000000 0.000000
									}
								}
							}
						}
					}
					JOINT LeftCollar
					{
						OFFSET 2.894404 0.000000 6.791374
						CHANNELS 3 Xrotation Yrotation Zrotation
						JOINT LeftShoulder
						{
							OFFSET 13.574684 0.000000 0.000000
							CHANNELS 3 Xrotation Yrotation Zrotation
							JOINT LeftElbow
							{
								OFFSET 23.923903 0.000000 0.000000
								CHANNELS 3 Xrotation Yrotation Zrotation
								JOINT LeftWrist
								{
									OFFSET 19.846718 -0.012765 0.000000
									CHANNELS 3 Xrotation Yrotation Zrotation
									End Site
									{
										OFFSET 14.973145 0.000000 0.000000
									}
								}
							}
						}
					}
				}
			}
		}
	}
	JOINT RightHip
	{
		OFFSET -9.469263 -0.004642 0.045487
		CHANNELS 3 Xrotation Yrotation Zrotation
		JOINT RightKnee
		{
			OFFSET 0.000000 -0.002666 -40.478676
			CHANNELS 3 Xrotation Yrotation Zrotation
			JOINT RightAnkle
			{
				OFFSET 0.000000 -0.049110 -35.224068
				CHANNELS 3 Xrotation Yrotation Zrotation
				JOINT RightToe
				{
					OFFSET 0.000000 -12.539530 -6.151390
					CHANNELS 3 Xrotation Yrotation Zrotation
					End Site
					{
						OFFSET 0.000000 -5.044995 -1.291870
					}
				}
			}
		}
	}
	JOINT LeftHip
	{
		OFFSET 9.469263 -0.004642 0.045487
		CHANNELS 3 Xrotation Yrotation Zrotation
		JOINT LeftKnee
		{
			OFFSET 0.000000 -0.002666 -40.478676
			CHANNELS 3 Xrotation Yrotation Zrotation
			JOINT LeftAnkle
			{
				OFFSET 0.000000 -0.049110 -35.224068
				CHANNELS 3 Xrotation Yrotation Zrotation
				JOINT LeftToe
				{
					OFFSET 0.000000 -12.539530 -6.151390
					CHANNELS 3 Xrotation Yrotation Zrotation
					End Site
					{
						OFFSET 0.000000 -5.044995 -1.291870
					}
				}
			}
		}
	}
}
MOTION
Frames: 8
Frame Time: 0.016667
-11.080526 -5.938525 83.018517 3.590183 6.653157 -113.801668 3.605387 0.449093 -0.094099 1.600783 0.197872 -0.035208 1.600783 0.197872 -0.035207 1.200574 0.148498 -0.025888 17.856754 -1.124658 -1.231266 -3.036798 -1.638252 -2.625344 1.291059 -6.988516 1.235730 11.084694 -61.955389 47.337261 38.277674 0.071760 91.998427 -45.111463 24.673985 71.537687 2.486119 9.632610 -6.262243 3.202324 51.544542 -43.889201 48.237453 13.764836 -89.028258 -34.114800 -36.774801 -74.383765 10.290984 -0.198587 -2.201700 2.358257 -0.097973 0.844979 -5.505906 -1.194779 0.329586 0.006577 -0.019928 0.002362 10.608016 -0.077944 1.459122 1.021361 -0.486127 2.116863 -4.405002 0.680081 -1.097142 0.011523 0.004125 -0.002677 
-11.088291 -5.944601 83.017899 3.592612 6.657129 -113.777503 3.575542 0.448817 -0.098942 1.587465 0.197841 -0.037621 1.587465 0.197842 -0.037618 1.190586 0.148480 -0.027697 17.808400 -1.141004 -1.244184 -3.127006 -1.662800 -2.655065 1.274950 -6.954065 1.200035 10.872298 -61.897551 47.326821 38.210226 -0.045899 91.967609 -45.021977 24.730983 71.324735 2.486059 9.612787 -6.294912 3.196031 51.528238 -43.968076 48.121258 13.949108 -88.999298 -34.175654 -36.754068 -74.252325 10.300168 -0.200889 -2.197950 2.362066 -0.090574 0.827081 -5.513452 -1.199585 0.325648 0.006104 -0.020604 0.002760 10.610761 -0.074177 1.443516 1.025748 -0.489416 2.111443 -4.409164 0.676835 -1.093498 0.012521 0.001794 -0.002424 
-11.097558 -5.952024 83.018051 3.593161 6.654493 -113.747546 3.545614 0.449659 -0.108606 1.574175 0.197864 -0.042076 1.574175 0.197864 -0.042077 1.180617 0.148507 -0.031049 17.757812 -1.151959 -1.255444 -3.221220 -1.678009 -2.679974 1.252246 -6.921025 1.161961 10.664249 -61.810965 47.329769 38.085951 -0.115460 91.940623 -44.887177 24.825841 71.074935 2.476686 9.583624 -6.316710 3.181427 51.518802 -44.036507 47.984152 14.102037 -88.965283 -34.251589 -36.715258 -74.105278 10.304849 -0.202013 -2.198051 2.363247 -0.089347 0.810202 -5.519212 -1.202021 0.313017 0.004525 -0.020554 0.003045 10.608203 -0.073053 1.414944 1.028135 -0.491763 2.110618 -4.411289 0.674852 -1.096871 0.012354 -0.001320 -0.002807 
-11.107374 -5.958909 83.018684 3.588861 6.648125 -113.713832 3.521284 0.452891 -0.116094 1.563502 0.199339 -0.046059 1.563502 0.199339 -0.046055 1.172610 0.149623 -0.034032 17.701333 -1.163356 -1.266296 -3.326398 -1.694021 -2.704406 1.213765 -6.892410 1.127219 10.450964 -61.699715 47.322679 37.882319 -0.113550 91.934114 -44.776514 25.000174 70.904986 2.446061 9.552581 -6.333261 3.104045 51.521015 -44.061844 47.874961 14.227335 -88.916482 -34.345377 -36.659364 -73.944666 10.300992 -0.201022 -2.179492 2.372383 -0.085376 0.775327 -5.527866 -1.206993 0.302107 0.001470 -0.020795 0.003069 10.602672 -0.068978 1.388895 1.024785 -0.493144 2.109967 -4.409180 0.673065 -1.095238 0.011589 -0.005100 -0.002503 
-11.117981 -5.964913 83.019073 3.587315 6.639354 -113.678807 3.503107 0.455261 -0.118965 1.555483 0.200359 -0.048139 1.555481 0.200359 -0.048141 1.166594 0.150393 -0.035602 17.643031 -1.177254 -1.279866 -3.435028 -1.713624 -2.734675 1.162917 -6.869657 1.090658 10.195753 -61.580330 47.279037 37.633765 -0.038490 91.929224 -44.782893 25.188662 70.849641 2.389401 9.526240 -6.354967 2.967167 51.530154 -44.033058 47.817458 14.372335 -88.861642 -34.387554 -36.544657 -73.733217 10.301084 -0.207418 -2.148514 2.371319 -0.078952 0.725303 -5.530871 -1.212070 0.287443 -0.001687 -0.020767 0.003826 10.597705 -0.072351 1.376139 1.021776 -0.491053 2.099881 -4.411273 0.672780 -1.106211 0.013004 -0.008848 -0.002672 
-11.129045 -5.967415 83.018700 3.582478 6.631353 -113.639342 3.482772 0.455116 -0.121948 1.546176 0.200683 -0.050128 1.546176 0.200683 -0.050125 1.159615 0.150640 -0.037091 17.592083 -1.188427 -1.293068 -3.529924 -1.728499 -2.763281 1.103035 -6.847187 1.060410 9.806844 -61.472905 47.090353 37.470435 -0.022129 91.933848 -44.797032 25.304761 70.796973 2.330536 9.511633 -6.369841 2.836263 51.523170 -44.018360 47.759183 14.533876 -88.804658 -34.351262 -36.535269 -73.496537 10.304097 -0.211635 -2.135996 2.368961 -0.073536 0.693618 -5.537248 -1.213424 0.274650 -0.003319 -0.022003 0.004432 10.593724 -0.077525 1.370298 1.016542 -0.483699 2.081076 -4.413367 0.673400 -1.124768 0.014923 -0.013332 -0.002268 
-11.142232 -5.971226 83.017960 3.578632 6.624097 -113.598525 3.457176 0.451735 -0.125790 1.534424 0.198829 -0.052405 1.534425 0.198829 -0.052410 1.150800 0.149254 -0.038808 17.551179 -1.194143 -1.303120 -3.606032 -1.734678 -2.784108 1.050930 -6.818435 1.040248 9.262636 -61.377186 46.740518 37.418283 -0.139553 91.955520 -44.744842 25.342117 70.664318 2.289309 9.502865 -6.380236 2.728238 51.490324 -44.021324 47.662190 14.677267 -88.753828 -34.288274 -36.550125 -73.234019 10.310830 -0.209812 -2.148262 2.363463 -0.079609 0.681921 -5.542533 -1.209953 0.263488 -0.004635 -0.022774 0.004489 10.588690 -0.082978 1.354900 1.019095 -0.473007 2.068771 -4.422049 0.667736 -1.141635 0.017398 -0.014778 -0.003140 
-11.154987 -5.975304 83.017548 3.577479 6.614400 -113.554559 3.428515 0.445346 -0.130908 1.521627 0.195519 -0.055229 1.521627 0.195519 -0.055233 1.141201 0.146779 -0.040939 17.509986 -1.197051 -1.310396 -3.682617 -1.736673 -2.798952 1.018982 -6.777196 1.014338 8.669182 -61.291372 46.359352 37.383876 -0.331564 91.977656 -44.600111 25.412200 70.456625 2.258018 9.495963 -6.387263 2.624821 51.443021 -44.015969 47.544711 14.815498 -88.711713 -34.251667 -36.546283 -72.955962 10.313283 -0.212780 -2.171484 2.363953 -0.083257 0.670076 -5.548668 -1.208879 0.259437 -0.007234 -0.023055 0.004903 10.575064 -0.089329 1.326932 1.033389 -0.466140 2.071836 -4.434360 0.663537 -1.152092 0.019187 -0.016026 -0.003900 
